<svg width="33" height="33" viewBox="0 0 33 33" fill="none" xmlns="http://www.w3.org/2000/svg">
<path d="M31.5487 10.0056C31.5487 9.51995 31.1613 9.12635 30.6833 9.12635H23.691V7.34747C23.691 6.86182 23.3036 6.46822 22.8256 6.46822H22.1013C21.7085 3.8426 19.4718 1.82422 16.7797 1.82422C14.0873 1.82422 11.8503 3.8426 11.4578 6.46822H10.7335C10.2555 6.46822 9.86813 6.86182 9.86813 7.34747V9.12612H2.87564C2.39765 9.12612 2.01025 9.51995 2.01025 10.0054V30.4834C2.01025 30.969 2.39765 31.3626 2.87564 31.3626H30.6833C31.161 31.3626 31.5487 30.969 31.5487 30.4834V13.5237V10.0056ZM29.8179 10.8848V12.6433H23.691V10.8848H29.8179ZM3.74102 10.8848H9.83432V12.6433H3.74102V10.8848ZM9.83432 29.6044H3.74102V14.4018H9.83432V29.6044ZM15.6258 29.603V26.6721H17.9335V29.603H15.6258ZM21.9602 29.6044H19.6643V25.7929C19.6643 25.3073 19.2767 24.9136 18.7989 24.9136H14.7604C14.2824 24.9136 13.895 25.3073 13.895 25.7929V29.6044H11.5988V8.22672H12.2634C12.4944 8.22672 12.7157 8.13307 12.8782 7.96638C13.0407 7.79969 13.1311 7.57392 13.1288 7.33923C13.1286 7.3232 13.1281 7.30694 13.1277 7.29091L13.1275 7.28748C13.1308 5.24414 14.7679 3.58272 16.7797 3.58272C18.7915 3.58272 20.4285 5.24414 20.4316 7.28748V7.29091C20.431 7.30694 20.4305 7.32297 20.4303 7.33923C20.4282 7.57392 20.5184 7.79969 20.6809 7.96638C20.8434 8.13307 21.0647 8.22672 21.2957 8.22672H21.9602V29.6044ZM29.8179 29.6044H23.6912V14.4018H29.8179V29.6044Z" fill="#117DC1" stroke="#117DC1" stroke-width="0.2"/>
<path d="M13.4031 10.5497H20.5142M16.9587 14.1053V6.99414" stroke="#117DC1" stroke-width="2"/>
<path d="M15.7147 16.2656H13.2532V18.7272H15.7147V16.2656Z" fill="#117DC1"/>
<path d="M15.7147 19.9589H13.2532V22.4205H15.7147V19.9589Z" fill="#117DC1"/>
<path d="M20.5209 19.9589H18.0594V22.4205H20.5209V19.9589Z" fill="#117DC1"/>
<path d="M20.5209 16.2656H18.0594V18.7272H20.5209V16.2656Z" fill="#117DC1"/>
</svg>
