<svg width="33" height="33" viewBox="0 0 33 33" fill="none" xmlns="http://www.w3.org/2000/svg">
<path d="M29.7563 22.9151C27.7978 19.5237 24.6741 17.0098 20.96 15.8377C20.5946 15.7211 20.1947 15.8207 19.9219 16.0941C18.6433 17.3744 17.1085 18.4331 16.314 18.944C15.454 18.3664 13.7526 17.1741 12.6781 16.0952C12.4042 15.8196 12.0054 15.72 11.6379 15.8377C7.92065 17.0119 4.79697 19.5258 2.84363 22.9151C2.65206 23.2469 2.65206 23.656 2.84363 23.9876C5.61852 28.8003 10.7737 31.789 16.2984 31.789C21.8231 31.789 26.9803 28.8003 29.7562 23.9887C29.9479 23.657 29.9479 23.2468 29.7563 22.9151ZM16.2984 29.6693C11.7181 29.6693 7.43233 27.3027 4.96566 23.4514C6.55978 20.9576 8.91297 19.0679 11.6868 18.0547C13.3392 19.5607 15.6382 21.0275 15.7455 21.0953C16.0704 21.302 16.4816 21.3116 16.8148 21.1154C16.9106 21.0593 19.018 19.8214 20.9141 18.0558C23.6837 19.0679 26.0359 20.9576 27.6331 23.4513C25.1655 27.3028 20.8799 29.6693 16.2984 29.6693Z" fill="#117DC1" stroke="#117DC1" stroke-width="0.2"/>
<path d="M17.9839 23.5677H24.7208M21.3907 26.9985V20.2617" stroke="#117DC1" stroke-width="1.6"/>
<path d="M10.6831 8.58555V3.18555H21.4831V8.58554C21.4831 11.5678 19.0655 13.9855 16.0831 13.9855C13.1008 13.9855 10.6831 11.5678 10.6831 8.58555Z" stroke="#117DC1" stroke-width="2"/>
<path d="M10.9644 7.33398C10.9644 7.33398 13.7072 7.33398 15.7644 7.33398C17.8215 7.33398 20.5644 7.33398 20.5644 7.33398" stroke="#117DC1" stroke-width="2" stroke-linecap="round" stroke-linejoin="round"/>
</svg>
