<svg width="16" height="15" viewBox="0 0 16 15" fill="none" xmlns="http://www.w3.org/2000/svg">
<path d="M7.20703 13.9258L7.8125 12.8516L8.4375 13.9258C8.24219 14.0299 8.03385 14.082 7.8125 14.082C7.59115 14.082 7.38932 14.0299 7.20703 13.9258ZM1.26953 4.90234C1.26953 5.99609 1.60807 7.02474 2.28516 7.98828C2.97526 8.95182 3.72721 9.79492 4.54102 10.5176C5.35482 11.2402 6.10677 11.8099 6.79688 12.2266C7.47396 12.6432 7.8125 12.8516 7.8125 12.8516C7.51302 13.3984 7.33724 13.7142 7.28516 13.7988C7.23307 13.8835 7.20703 13.9258 7.20703 13.9258H7.1875H7.16797C7.16797 13.9128 7.16146 13.903 7.14844 13.8965C7.13542 13.89 7.1224 13.8867 7.10938 13.8867C7.08333 13.8607 7.05078 13.8379 7.01172 13.8184C6.97266 13.7988 6.92708 13.776 6.875 13.75C6.78385 13.6849 6.66992 13.6133 6.5332 13.5352C6.39648 13.457 6.25 13.3594 6.09375 13.2422C5.76823 13.0339 5.39714 12.7767 4.98047 12.4707C4.5638 12.1647 4.13411 11.8164 3.69141 11.4258C3.27474 11.0612 2.85156 10.6445 2.42188 10.1758C1.97917 9.70703 1.57878 9.19596 1.2207 8.64258C0.86263 8.08919 0.572917 7.5 0.351562 6.875C0.117188 6.25 0 5.59245 0 4.90234C0 4.38151 0.0911458 3.87044 0.273438 3.36914C0.455729 2.86784 0.716146 2.41536 1.05469 2.01172C1.40625 1.60807 1.81315 1.26953 2.27539 0.996094C2.73763 0.722656 3.22917 0.533854 3.75 0.429688C4.28385 0.325521 4.81771 0.3125 5.35156 0.390625C5.88542 0.46875 6.38672 0.63151 6.85547 0.878906C7.03776 0.970052 7.20703 1.07096 7.36328 1.18164C7.51953 1.29232 7.66927 1.40625 7.8125 1.52344C7.95573 1.40625 8.10872 1.29232 8.27148 1.18164C8.43424 1.07096 8.60026 0.970052 8.76953 0.878906C9.2513 0.63151 9.75911 0.46875 10.293 0.390625C10.8268 0.3125 11.3542 0.325521 11.875 0.429688C12.4089 0.533854 12.9069 0.722656 13.3691 0.996094C13.8314 1.26953 14.2318 1.60807 14.5703 2.01172C14.9089 2.41536 15.1693 2.86784 15.3516 3.36914C15.5339 3.87044 15.625 4.38151 15.625 4.90234C15.625 5.59245 15.5143 6.25 15.293 6.875C15.0586 7.5 14.7624 8.08919 14.4043 8.64258C14.0462 9.19596 13.6523 9.70703 13.2227 10.1758C12.7799 10.6445 12.3503 11.0612 11.9336 11.4258C11.4909 11.8164 11.0645 12.1647 10.6543 12.4707C10.2441 12.7767 9.8763 13.0339 9.55078 13.2422C9.38151 13.3594 9.23177 13.457 9.10156 13.5352C8.97135 13.6133 8.85417 13.6849 8.75 13.75C8.69792 13.776 8.6556 13.7988 8.62305 13.8184C8.59049 13.8379 8.55469 13.8607 8.51562 13.8867C8.5026 13.8867 8.49284 13.89 8.48633 13.8965C8.47982 13.903 8.47005 13.9128 8.45703 13.9258H8.4375C8.4375 13.9258 8.41146 13.8835 8.35938 13.7988C8.30729 13.7142 8.125 13.3984 7.8125 12.8516C7.8125 12.8516 8.15755 12.6432 8.84766 12.2266C9.52474 11.8099 10.2734 11.2402 11.0938 10.5176C11.9141 9.79492 12.6628 8.95182 13.3398 7.98828C14.0299 7.02474 14.375 5.99609 14.375 4.90234C14.375 4.52474 14.3066 4.15365 14.1699 3.78906C14.0332 3.42448 13.8411 3.09245 13.5938 2.79297C13.3464 2.49349 13.0534 2.24609 12.7148 2.05078C12.3763 1.85547 12.0182 1.71875 11.6406 1.64062C11.25 1.5625 10.8594 1.54948 10.4688 1.60156C10.0781 1.65365 9.70703 1.77083 9.35547 1.95312C9.22526 2.03125 9.09831 2.11263 8.97461 2.19727C8.85091 2.2819 8.73698 2.3763 8.63281 2.48047C8.45052 2.63672 8.29102 2.8125 8.1543 3.00781C8.01758 3.20312 7.90365 3.40495 7.8125 3.61328C7.72135 3.40495 7.60742 3.20312 7.4707 3.00781C7.33398 2.8125 7.18099 2.63672 7.01172 2.48047C6.89453 2.3763 6.77409 2.2819 6.65039 2.19727C6.52669 2.11263 6.39974 2.03125 6.26953 1.95312C5.91797 1.77083 5.55013 1.65365 5.16602 1.60156C4.7819 1.54948 4.39453 1.5625 4.00391 1.64062C3.61328 1.71875 3.2487 1.85547 2.91016 2.05078C2.57161 2.24609 2.27865 2.49349 2.03125 2.79297C1.78385 3.09245 1.59505 3.42448 1.46484 3.78906C1.33464 4.15365 1.26953 4.52474 1.26953 4.90234Z" fill="#757575"/>
</svg>
