<svg width="24" height="24" viewBox="0 0 24 24" fill="none" xmlns="http://www.w3.org/2000/svg">
<path d="M23.9997 1.97304C24.0329 0.245581 21.8191 -0.66744 20.6237 0.573498L19.8137 1.38193L10.0857 11.087C10.0465 11.1341 10.0175 11.1928 9.9851 11.2456L8.75604 14.6619C8.72845 14.7383 8.72306 14.8211 8.74049 14.9005C8.75793 14.9799 8.79747 15.0527 8.85451 15.1104C8.91155 15.1681 8.98372 15.2082 9.06261 15.2262C9.14149 15.2441 9.22383 15.2392 9.30001 15.2118L12.7241 13.9855C12.783 13.9632 12.8375 13.9298 12.8802 13.8869C12.8823 13.8856 22.612 4.17715 22.6137 4.17586L23.4194 3.37214C23.6038 3.18941 23.75 2.97157 23.8497 2.73133C23.9493 2.4911 24.0003 2.23331 23.9997 1.97304ZM12.7075 12.8517C12.3226 12.1423 11.7944 11.6082 11.1302 11.2528L20.116 2.28852L21.7057 3.87452L12.7075 12.8517ZM10.6356 11.958C11.2231 12.2447 11.6741 12.6991 12.0007 13.3344L9.8653 14.0995L10.6356 11.958ZM22.8188 2.76346L22.311 3.27055L20.7209 1.68413L21.2239 1.18261C22.2906 0.165424 23.8436 1.68413 22.8183 2.76389L22.8188 2.76346Z" fill="#757575"/>
<path d="M20.8095 7.14037C20.6965 7.14037 20.588 7.18553 20.5081 7.26592C20.4281 7.34631 20.3832 7.45534 20.3832 7.56902V21.3569C20.3832 22.3415 19.5788 23.1427 18.5906 23.1427H2.64526C1.65665 23.1427 0.852623 22.3415 0.852623 21.3569V5.4485C0.852623 4.46389 1.65665 3.66317 2.64526 3.66317H16.3554C16.9109 3.65932 16.919 2.81274 16.3554 2.80588H2.64526C1.18642 2.80588 0 3.99109 0 5.4485V21.3569C0 22.8143 1.18642 24 2.64526 24H18.5906C20.0494 24 21.2359 22.8143 21.2359 21.3569V7.56902C21.2359 7.45534 21.1909 7.34631 21.111 7.26592C21.031 7.18553 20.9226 7.14037 20.8095 7.14037Z" fill="#757575"/>
</svg>
