<svg width="40" height="40" viewBox="0 0 40 40" fill="none" xmlns="http://www.w3.org/2000/svg">
<path d="M0 20C0 8.95431 8.95431 0 20 0C31.0457 0 40 8.95431 40 20C40 31.0457 31.0457 40 20 40C8.95431 40 0 31.0457 0 20Z" fill="#F7F7F7"/>
<path fill-rule="evenodd" clip-rule="evenodd" d="M14.6672 16.8402C14.6672 13.902 17.0548 11.52 19.9999 11.52C22.9451 11.52 25.3326 13.902 25.3326 16.8402C25.3326 19.7784 22.9451 22.1603 20 22.1604C17.0549 22.1604 14.6672 19.7784 14.6672 16.8402ZM23.5165 22.7134C25.517 21.5187 26.8562 19.3355 26.8562 16.8402C26.8562 13.0625 23.7865 10 19.9999 10C16.2133 10 13.1436 13.0625 13.1436 16.8402C13.1436 19.3355 14.4829 21.5187 16.4834 22.7134C15.7218 22.9591 14.9851 23.2849 14.2861 23.6873C12.5487 24.6877 11.1058 26.1266 10.1023 27.8595C9.89182 28.2229 10.0166 28.6878 10.3809 28.8978C10.7452 29.1077 11.2111 28.9833 11.4216 28.6199C12.2913 27.118 13.5419 25.8709 15.0477 25.0039C16.5535 24.1368 18.2613 23.6804 19.9999 23.6804C21.7385 23.6804 23.4466 24.1369 24.9524 25.004C26.4582 25.871 27.7087 27.1181 28.5784 28.62C28.7889 28.9835 29.2549 29.1079 29.6192 28.8979C29.9835 28.688 30.1082 28.2231 29.8977 27.8597C28.8943 26.1268 27.4514 24.6879 25.7141 23.6875C25.015 23.2849 24.2782 22.9591 23.5165 22.7134Z" fill="#757575"/>
</svg>
