<svg width="24" height="24" viewBox="0 0 24 24" fill="none" xmlns="http://www.w3.org/2000/svg">
<path d="M21.7009 24H2.29912C1.68955 23.9994 1.10514 23.7569 0.67411 23.3259C0.243081 22.8949 0.000646069 22.3105 0 21.7009V3.11269C0.000646069 2.50312 0.243081 1.91871 0.67411 1.48768C1.10514 1.05665 1.68955 0.814214 2.29912 0.813568H21.7009C22.3104 0.814214 22.8949 1.05665 23.3259 1.48768C23.7569 1.91871 23.9994 2.50312 24 3.11269V21.7009C23.9994 22.3105 23.7569 22.8949 23.3259 23.3259C22.8949 23.7569 22.3104 23.9994 21.7009 24ZM2.29912 2.03391C1.70441 2.03391 1.22034 2.51798 1.22034 3.11269V21.7009C1.22034 22.2956 1.70441 22.7797 2.29912 22.7797H21.7009C22.2956 22.7797 22.7797 22.2956 22.7797 21.7009V3.11269C22.7797 2.51798 22.2956 2.03391 21.7009 2.03391H2.29912Z" fill="#757575"/>
<path d="M5.49144 2.84746C5.32962 2.84746 5.17442 2.78317 5.05999 2.66874C4.94556 2.55431 4.88127 2.39912 4.88127 2.23729V0.610169C4.88127 0.448342 4.94556 0.293143 5.05999 0.178715C5.17442 0.0642855 5.32962 0 5.49144 0C5.65327 0 5.80847 0.0642855 5.9229 0.178715C6.03733 0.293143 6.10161 0.448342 6.10161 0.610169V2.23729C6.10161 2.39912 6.03733 2.55431 5.9229 2.66874C5.80847 2.78317 5.65327 2.84746 5.49144 2.84746ZM11.9999 2.84746C11.8381 2.84746 11.6829 2.78317 11.5685 2.66874C11.454 2.55431 11.3897 2.39912 11.3897 2.23729V0.610169C11.3897 0.448342 11.454 0.293143 11.5685 0.178715C11.6829 0.0642855 11.8381 0 11.9999 0C12.1617 0 12.3169 0.0642855 12.4314 0.178715C12.5458 0.293143 12.6101 0.448342 12.6101 0.610169V2.23729C12.6101 2.39912 12.5458 2.55431 12.4314 2.66874C12.3169 2.78317 12.1617 2.84746 11.9999 2.84746ZM18.5084 2.84746C18.3466 2.84746 18.1914 2.78317 18.0769 2.66874C17.9625 2.55431 17.8982 2.39912 17.8982 2.23729V0.610169C17.8982 0.448342 17.9625 0.293143 18.0769 0.178715C18.1914 0.0642855 18.3466 0 18.5084 0C18.6702 0 18.8254 0.0642855 18.9398 0.178715C19.0543 0.293143 19.1186 0.448342 19.1186 0.610169V2.23729C19.1186 2.39912 19.0543 2.55431 18.9398 2.66874C18.8254 2.78317 18.6702 2.84746 18.5084 2.84746ZM22.5762 6.10169H1.42365C1.26182 6.10169 1.10662 6.03741 0.992191 5.92298C0.877762 5.80855 0.813477 5.65335 0.813477 5.49153C0.813477 5.3297 0.877762 5.1745 0.992191 5.06007C1.10662 4.94564 1.26182 4.88136 1.42365 4.88136H22.5762C22.738 4.88136 22.8932 4.94564 23.0076 5.06007C23.1221 5.1745 23.1864 5.3297 23.1864 5.49153C23.1864 5.65335 23.1221 5.80855 23.0076 5.92298C22.8932 6.03741 22.738 6.10169 22.5762 6.10169ZM7.11856 13.4237H3.86432C3.7025 13.4237 3.5473 13.3594 3.43287 13.245C3.31844 13.1306 3.25415 12.9754 3.25415 12.8136V9.55932C3.25415 9.39749 3.31844 9.2423 3.43287 9.12787C3.5473 9.01344 3.7025 8.94915 3.86432 8.94915H7.11856C7.28039 8.94915 7.43559 9.01344 7.55002 9.12787C7.66444 9.2423 7.72873 9.39749 7.72873 9.55932V12.8136C7.72873 12.9754 7.66444 13.1306 7.55002 13.245C7.43559 13.3594 7.28039 13.4237 7.11856 13.4237ZM4.47449 12.2034H6.50839V10.1695H4.47449V12.2034ZM7.11856 19.9322H3.86432C3.7025 19.9322 3.5473 19.8679 3.43287 19.7535C3.31844 19.6391 3.25415 19.4839 3.25415 19.322V16.0678C3.25415 15.906 3.31844 15.7508 3.43287 15.6363C3.5473 15.5219 3.7025 15.4576 3.86432 15.4576H7.11856C7.28039 15.4576 7.43559 15.5219 7.55002 15.6363C7.66444 15.7508 7.72873 15.906 7.72873 16.0678V19.322C7.72873 19.4839 7.66444 19.6391 7.55002 19.7535C7.43559 19.8679 7.28039 19.9322 7.11856 19.9322ZM4.47449 18.7119H6.50839V16.678H4.47449V18.7119ZM13.627 19.9322H10.3728C10.211 19.9322 10.0558 19.8679 9.94134 19.7535C9.82691 19.6391 9.76263 19.4839 9.76263 19.322V16.0678C9.76263 15.906 9.82691 15.7508 9.94134 15.6363C10.0558 15.5219 10.211 15.4576 10.3728 15.4576H13.627C13.7889 15.4576 13.9441 15.5219 14.0585 15.6363C14.1729 15.7508 14.2372 15.906 14.2372 16.0678V19.322C14.2372 19.4839 14.1729 19.6391 14.0585 19.7535C13.9441 19.8679 13.7889 19.9322 13.627 19.9322ZM10.983 18.7119H13.0169V16.678H10.983V18.7119ZM13.627 13.4237H10.3728C10.211 13.4237 10.0558 13.3594 9.94134 13.245C9.82691 13.1306 9.76263 12.9754 9.76263 12.8136V9.55932C9.76263 9.39749 9.82691 9.2423 9.94134 9.12787C10.0558 9.01344 10.211 8.94915 10.3728 8.94915H13.627C13.7889 8.94915 13.9441 9.01344 14.0585 9.12787C14.1729 9.2423 14.2372 9.39749 14.2372 9.55932V12.8136C14.2372 12.9754 14.1729 13.1306 14.0585 13.245C13.9441 13.3594 13.7889 13.4237 13.627 13.4237ZM10.983 12.2034H13.0169V10.1695H10.983V12.2034ZM20.1355 13.4237H16.8813C16.7194 13.4237 16.5642 13.3594 16.4498 13.245C16.3354 13.1306 16.2711 12.9754 16.2711 12.8136V9.55932C16.2711 9.39749 16.3354 9.2423 16.4498 9.12787C16.5642 9.01344 16.7194 8.94915 16.8813 8.94915H20.1355C20.2973 8.94915 20.4525 9.01344 20.567 9.12787C20.6814 9.2423 20.7457 9.39749 20.7457 9.55932V12.8136C20.7457 12.9754 20.6814 13.1306 20.567 13.245C20.4525 13.3594 20.2973 13.4237 20.1355 13.4237ZM17.4914 12.2034H19.5253V10.1695H17.4914V12.2034Z" fill="#757575"/>
</svg>
