<svg width="18" height="10" viewBox="0 0 18 10" fill="none" xmlns="http://www.w3.org/2000/svg">
<path d="M0.960938 0.867188C1.11719 0.710938 1.29688 0.632812 1.5 0.632812C1.70312 0.632812 1.88281 0.710938 2.03906 0.867188L9 7.82812L15.9609 0.867188C16.1172 0.710938 16.2969 0.632812 16.5 0.632812C16.7031 0.632812 16.8828 0.710938 17.0391 0.867188C17.1797 1.00781 17.25 1.18359 17.25 1.39453C17.25 1.60547 17.1797 1.78125 17.0391 1.92188L9.53906 9.42188C9.38281 9.5625 9.20312 9.63281 9 9.63281C8.79688 9.63281 8.61719 9.5625 8.46094 9.42188L0.960938 1.92188C0.820312 1.78125 0.75 1.60547 0.75 1.39453C0.75 1.18359 0.820312 1.00781 0.960938 0.867188Z" fill="black"/>
</svg>
