<svg width="17" height="14" viewBox="0 0 17 14" fill="none" xmlns="http://www.w3.org/2000/svg">
<path d="M7.70703 13.8437L8.3125 12.7695L8.9375 13.8437C8.74219 13.9479 8.53385 14 8.3125 14C8.09115 14 7.88932 13.9479 7.70703 13.8437ZM10.793 10.0937C10.793 11.1875 5.45821 10.3802 6.13529 11.3437C6.8254 12.3073 4.22721 9.7129 5.04102 10.4355C5.85482 11.1582 6.60677 11.7279 7.29688 12.1445C7.97396 12.5612 8.3125 12.7695 8.3125 12.7695C8.01302 13.3164 7.83724 13.6322 7.78516 13.7168C7.73307 13.8014 7.70703 13.8437 7.70703 13.8437H7.6875H7.66797C7.66797 13.8307 7.66146 13.821 7.64844 13.8145C7.63542 13.8079 7.6224 13.8047 7.60938 13.8047C7.58333 13.7786 7.55078 13.7559 7.51172 13.7363C7.47266 13.7168 7.42708 13.694 7.375 13.668C7.28385 13.6029 7.16992 13.5312 7.0332 13.4531C6.89648 13.375 6.75 13.2773 6.59375 13.1602C6.26823 12.9518 5.89714 12.6947 5.48047 12.3887C5.0638 12.0827 4.63411 11.7344 4.19141 11.3437C3.77474 10.9792 3.35156 10.5625 2.92188 10.0937C2.47917 9.625 2.07878 9.11393 1.7207 8.56055C1.36263 8.00717 1.07292 7.41796 0.851562 6.79297C0.617188 6.16797 0.5 5.51041 0.5 4.82031C0.5 4.29948 0.591146 3.78841 0.773438 3.28711C0.955729 2.78581 1.21615 2.33333 1.55469 1.92969C1.90625 1.52605 2.31315 1.1875 2.77539 0.914062C3.23763 0.640628 3.72917 0.451822 4.25 0.347656C4.78385 0.24349 5.31771 0.230469 5.85156 0.308594C6.38542 0.386718 6.88672 0.549481 7.35547 0.796875C7.53776 0.88802 7.70703 0.988933 7.86328 1.09961C8.01953 1.21029 8.16927 1.32422 8.3125 1.44141C8.45573 1.32422 8.60872 1.21029 8.77148 1.09961C8.93424 0.988933 9.10026 0.88802 9.26953 0.796875C9.7513 0.549481 10.2591 0.386718 10.793 0.308594C11.3268 0.230469 11.8542 0.24349 12.375 0.347656C12.9089 0.451822 13.4069 0.640628 13.8691 0.914062C14.3314 1.1875 14.7318 1.52605 15.0703 1.92969C15.4089 2.33333 15.6693 2.78581 15.8516 3.28711C16.0339 3.78841 16.125 4.29948 16.125 4.82031C16.125 5.51041 16.0143 6.16797 15.793 6.79297C15.5586 7.41796 15.2624 8.00717 14.9043 8.56055C14.5462 9.11393 14.1523 9.625 13.7227 10.0937C13.2799 10.5625 12.8503 10.9792 12.4336 11.3437C11.9909 11.7344 11.5645 12.0827 11.1543 12.3887C10.7441 12.6947 10.3763 12.9518 10.0508 13.1602C9.88151 13.2773 9.73177 13.375 9.60156 13.4531C9.47135 13.5312 9.35417 13.6029 9.25 13.668C9.19792 13.694 9.1556 13.7168 9.12305 13.7363C9.09049 13.7559 9.05469 13.7786 9.01562 13.8047C9.0026 13.8047 8.99284 13.8079 8.98633 13.8145C8.97982 13.821 8.97005 13.8307 8.95703 13.8437H8.9375C8.9375 13.8437 8.91146 13.8014 8.85938 13.7168C8.80729 13.6322 8.625 13.3164 8.3125 12.7695C8.3125 12.7695 8.65755 12.5612 9.34766 12.1445C10.0247 11.7279 10.7734 11.1582 11.5938 10.4355C12.4141 9.7129 13.1628 8.86978 13.8398 7.90625C14.5299 6.94272 14.9043 5.59374 14.9043 4.5C14.9043 4.1224 15.041 8.27083 14.9043 7.90625C14.7676 7.54167 15.1224 7.09244 14.875 6.79297C14.6276 6.49349 12.3385 11.2852 12 11.0898C11.6615 10.8945 8.6901 12.8477 8.3125 12.7695C7.92188 12.6914 4.89062 11.0378 4.5 11.0898C4.10938 11.1419 9.60156 10.2533 9.25 10.4355C9.11979 10.5137 2.89909 2.3138 2.77539 2.39844C2.65169 2.48307 9.23698 2.29427 9.13281 2.39844C8.95052 2.55469 13.5 5.58982 8.6543 2.92578C8.51758 3.12109 7.12435 12.1803 7.0332 12.3887C6.94206 12.1803 8.10742 3.12109 7.9707 2.92578C7.83398 2.73047 1.16927 5.15625 1 5C0.882812 4.89583 7.27409 2.19987 7.15039 2.11523C7.02669 2.0306 2.92188 4.82031 6.76953 1.87109C6.41797 1.6888 2.10482 3.33919 1.7207 3.28711C1.33659 3.23503 7.39062 1.36328 7 1.44141C6.60938 1.51953 9.9401 8.93794 9.60156 9.13325C9.26302 9.32856 1.80208 4.52083 1.55469 4.82031C1.30729 5.11979 7.2806 0.735028 7.15039 1.09961C7.02018 1.46419 10.793 9.71615 10.793 10.0937Z" fill="#D21919"/>
</svg>
