<svg width="25" height="24" viewBox="0 0 25 24" fill="none" xmlns="http://www.w3.org/2000/svg">
<path d="M19.3498 14.8673C18.8577 14.3557 18.2642 14.0822 17.6352 14.0822C17.0112 14.0822 16.4126 14.3507 15.9003 14.8623L14.2973 16.4579C14.1654 16.3869 14.0335 16.3211 13.9067 16.2552C13.7241 16.1641 13.5516 16.0779 13.4045 15.9868C11.903 15.0345 10.5384 13.7935 9.22965 12.1877C8.59556 11.3874 8.16945 10.7137 7.86001 10.0299C8.27598 9.65 8.66151 9.2549 9.03689 8.875C9.17893 8.73317 9.32096 8.58627 9.463 8.44444C10.5283 7.38072 10.5283 6.00294 9.463 4.93921L8.07814 3.55636C7.92089 3.39934 7.75856 3.23725 7.60638 3.07515C7.30201 2.7611 6.98243 2.43692 6.6527 2.133C6.16065 1.64672 5.57221 1.38839 4.95334 1.38839C4.33446 1.38839 3.73588 1.64672 3.2286 2.133L3.21846 2.14313L1.49373 3.88055C0.844418 4.52892 0.474108 5.31911 0.392944 6.23594C0.271198 7.71503 0.707454 9.09281 1.04225 9.99445C1.86404 12.208 3.09164 14.2595 4.9229 16.4579C7.14476 19.107 9.81809 21.199 12.8719 22.6731C14.0386 23.2252 15.5959 23.8786 17.3359 23.9901C17.4424 23.9951 17.554 24.0002 17.6555 24.0002C18.8273 24.0002 19.8114 23.5798 20.5824 22.744C20.5875 22.7338 20.5977 22.7288 20.6027 22.7186C20.8665 22.3995 21.1709 22.1108 21.4905 21.8018C21.7086 21.5941 21.9318 21.3763 22.1499 21.1484C22.6521 20.6266 22.9159 20.0188 22.9159 19.3958C22.9159 18.7677 22.647 18.1649 22.1347 17.6583L19.3498 14.8673ZM21.1658 20.2012C21.1607 20.2062 21.1607 20.2012 21.1658 20.2012C20.968 20.4139 20.7651 20.6064 20.5469 20.8191C20.2172 21.1332 19.8824 21.4624 19.5679 21.8322C19.0555 22.3793 18.4519 22.6376 17.6605 22.6376C17.5845 22.6376 17.5033 22.6376 17.4272 22.6325C15.9206 22.5363 14.5205 21.9487 13.4705 21.4472C10.5993 20.0593 8.07814 18.0889 5.9831 15.5917C4.2533 13.5098 3.09671 11.585 2.33073 9.5183C1.85897 8.25703 1.68649 7.27434 1.76258 6.34738C1.81331 5.75473 2.04158 5.26339 2.46262 4.84297L4.19242 3.11568C4.44099 2.88267 4.70477 2.75604 4.96348 2.75604C5.28306 2.75604 5.54177 2.94852 5.7041 3.11061L5.71932 3.12581C6.02876 3.41453 6.32297 3.71339 6.63241 4.03251C6.78967 4.1946 6.95199 4.35669 7.11432 4.52385L8.49918 5.90669C9.03689 6.44362 9.03689 6.94003 8.49918 7.47696C8.35207 7.62385 8.21003 7.77075 8.06292 7.91258C7.63681 8.3482 7.23099 8.75343 6.78967 9.14853C6.77952 9.15866 6.76938 9.16373 6.7643 9.17386C6.32805 9.60948 6.40921 10.035 6.50052 10.3237L6.51574 10.3693C6.8759 11.2405 7.38318 12.0611 8.15423 13.0387L8.15931 13.0438C9.55938 14.766 11.0355 16.1083 12.6639 17.1366C12.8719 17.2683 13.0849 17.3747 13.2878 17.476C13.4705 17.5672 13.6429 17.6533 13.79 17.7445C13.8103 17.7546 13.8306 17.7698 13.8509 17.7799C14.0234 17.866 14.1857 17.9065 14.3531 17.9065C14.7742 17.9065 15.0379 17.6431 15.1242 17.557L16.8591 15.8247C17.0315 15.6525 17.3055 15.4448 17.625 15.4448C17.9395 15.4448 18.1983 15.6423 18.3555 15.8146L18.3657 15.8247L21.1607 18.6157C21.6832 19.1324 21.6832 19.6642 21.1658 20.2012ZM13.3436 5.70915C14.6727 5.93202 15.88 6.56013 16.8438 7.52255C17.8077 8.48497 18.4316 9.69052 18.6599 11.0176C18.7157 11.352 19.0048 11.585 19.3345 11.585C19.3751 11.585 19.4106 11.5799 19.4512 11.5748C19.8266 11.5141 20.0752 11.1595 20.0143 10.7846C19.7404 9.17892 18.9795 7.71503 17.8178 6.55506C16.6561 5.39509 15.1901 4.63529 13.5821 4.36176C13.2067 4.30097 12.8567 4.54918 12.7907 4.91895C12.7248 5.28872 12.9683 5.64836 13.3436 5.70915ZM24.3616 10.5871C23.9102 7.94297 22.6623 5.53692 20.7448 3.62221C18.8273 1.70751 16.4177 0.461426 13.7698 0.0106084C13.3994 -0.0552414 13.0494 0.198027 12.9835 0.567799C12.9226 0.942636 13.1712 1.29215 13.5466 1.358C15.9104 1.75816 18.0664 2.87761 19.7809 4.58463C21.4955 6.29673 22.6115 8.44951 23.0123 10.81C23.0681 11.1443 23.3572 11.3773 23.687 11.3773C23.7275 11.3773 23.763 11.3722 23.8036 11.3672C24.1739 11.3114 24.4276 10.9569 24.3616 10.5871Z" fill="#757575"/>
</svg>
