<svg width="20" height="16" viewBox="0 0 20 16" fill="none" xmlns="http://www.w3.org/2000/svg">
<path d="M4.95994 0.320008C3.81372 0.319283 2.71168 0.762105 1.88464 1.55572C1.0576 2.34934 0.569723 3.43219 0.523193 4.57746C0.476662 5.72274 0.875088 6.8416 1.63502 7.69969C2.39495 8.55778 3.45744 9.08855 4.59994 9.18081V12.8H2.67994C2.58446 12.8 2.4929 12.8379 2.42538 12.9054C2.35787 12.973 2.31994 13.0645 2.31994 13.16C2.31994 13.2555 2.35787 13.3471 2.42538 13.4146C2.4929 13.4821 2.58446 13.52 2.67994 13.52H4.59994V15.32C4.59994 15.4155 4.63787 15.5071 4.70538 15.5746C4.7729 15.6421 4.86446 15.68 4.95994 15.68C5.05542 15.68 5.14699 15.6421 5.2145 15.5746C5.28201 15.5071 5.31994 15.4155 5.31994 15.32V13.52H7.23994C7.33542 13.52 7.42699 13.4821 7.4945 13.4146C7.56201 13.3471 7.59994 13.2555 7.59994 13.16C7.59994 13.0645 7.56201 12.973 7.4945 12.9054C7.42699 12.8379 7.33542 12.8 7.23994 12.8H5.31994V9.18081C6.46244 9.08855 7.52493 8.55778 8.28486 7.69969C9.04479 6.8416 9.44322 5.72274 9.39669 4.57746C9.35016 3.43219 8.86228 2.34934 8.03524 1.55572C7.2082 0.762105 6.10616 0.319283 4.95994 0.320008ZM4.95994 8.48001C4.22419 8.48001 3.50497 8.26183 2.89322 7.85308C2.28147 7.44432 1.80467 6.86333 1.52311 6.18359C1.24155 5.50385 1.16788 4.75588 1.31142 4.03427C1.45496 3.31266 1.80925 2.64982 2.3295 2.12957C2.84975 1.60932 3.5126 1.25502 4.2342 1.11149C4.95581 0.96795 5.70378 1.04162 6.38352 1.32318C7.06326 1.60473 7.64425 2.08154 8.05301 2.69329C8.46177 3.30504 8.67994 4.02426 8.67994 4.76001C8.6793 5.74642 8.28717 6.69225 7.58968 7.38974C6.89218 8.08724 5.94635 8.47937 4.95994 8.48001Z" fill="url(#paint0_linear_260_41)"/>
<path d="M15.3996 6.81924V1.42884L17.0652 3.09444C17.1327 3.16185 17.2242 3.19972 17.3196 3.19972C17.415 3.19972 17.5065 3.16185 17.574 3.09444C17.6077 3.06118 17.6344 3.02156 17.6527 2.97789C17.6709 2.93422 17.6803 2.88737 17.6803 2.84004C17.6803 2.79271 17.6709 2.74585 17.6527 2.70218C17.6344 2.65851 17.6077 2.6189 17.574 2.58564L15.414 0.425638C15.3753 0.387529 15.3283 0.358998 15.2766 0.342329C15.2249 0.325659 15.1701 0.321313 15.1164 0.329638C15.066 0.316838 15.0132 0.316838 14.9628 0.329638C14.9092 0.321313 14.8543 0.325659 14.8026 0.342329C14.7509 0.358998 14.7039 0.387529 14.6652 0.425638L12.5052 2.58564C12.4715 2.6189 12.4448 2.65851 12.4266 2.70218C12.4083 2.74585 12.3989 2.79271 12.3989 2.84004C12.3989 2.88737 12.4083 2.93422 12.4266 2.97789C12.4448 3.02156 12.4715 3.06118 12.5052 3.09444C12.5727 3.16185 12.6642 3.19972 12.7596 3.19972C12.855 3.19972 12.9465 3.16185 13.014 3.09444L14.6796 1.42884V6.81924C13.537 6.91219 12.4747 7.44347 11.7149 8.30189C10.9551 9.16031 10.5568 10.2793 10.6033 11.4248C10.6498 12.5702 11.1375 13.6532 11.9644 14.4472C12.7913 15.2412 13.8932 15.6846 15.0396 15.6846C16.186 15.6846 17.2879 15.2412 18.1148 14.4472C18.9417 13.6532 19.4294 12.5702 19.476 11.4248C19.5225 10.2793 19.1241 9.16031 18.3644 8.30189C17.6046 7.44347 16.5422 6.91219 15.3996 6.81924ZM15.0396 14.96C14.3039 14.96 13.5846 14.7419 12.9729 14.3331C12.3611 13.9243 11.8843 13.3434 11.6028 12.6636C11.3212 11.9839 11.2476 11.2359 11.3911 10.5143C11.5346 9.79269 11.8889 9.12985 12.4092 8.6096C12.9294 8.08935 13.5923 7.73505 14.3139 7.59152C15.0355 7.44798 15.7835 7.52165 16.4632 7.80321C17.1429 8.08476 17.7239 8.56157 18.1327 9.17332C18.5414 9.78507 18.7596 10.5043 18.7596 11.24C18.759 12.2264 18.3668 13.1723 17.6693 13.8698C16.9719 14.5673 16.026 14.9594 15.0396 14.96Z" fill="url(#paint1_linear_260_41)"/>
<defs>
<linearGradient id="paint0_linear_260_41" x1="0.519941" y1="8.00001" x2="9.39994" y2="8.00001" gradientUnits="userSpaceOnUse">
<stop stop-color="#757575"/>
</linearGradient>
<linearGradient id="paint1_linear_260_41" x1="10.5996" y1="-3.99996" x2="19.4796" y2="-3.99996" gradientUnits="userSpaceOnUse">
<stop offset="0.0833333" stop-color="#757575"/>
</linearGradient>
</defs>
</svg>
