<svg width="20" height="22" viewBox="0 0 20 22" fill="none" xmlns="http://www.w3.org/2000/svg">
<path d="M9.70312 0.554688C8.98438 0.554688 8.30469 0.695312 7.66406 0.976562C7.02344 1.24219 6.46484 1.61328 5.98828 2.08984C5.51172 2.56641 5.13281 3.125 4.85156 3.76562C4.58594 4.40625 4.45312 5.08594 4.45312 5.80469C4.45312 6.52344 4.58594 7.20312 4.85156 7.84375C5.13281 8.48438 5.51172 9.04297 5.98828 9.51953C6.46484 9.99609 7.02344 10.375 7.66406 10.6562C8.30469 10.9219 8.98438 11.0547 9.70312 11.0547C10.4219 11.0547 11.1016 10.9219 11.7422 10.6562C12.3828 10.375 12.9414 9.99609 13.418 9.51953C13.8945 9.04297 14.2734 8.48438 14.5547 7.84375C14.8203 7.20312 14.9531 6.52344 14.9531 5.80469C14.9531 5.08594 14.8203 4.40625 14.5547 3.76562C14.2734 3.125 13.8945 2.56641 13.418 2.08984C12.9414 1.61328 12.3828 1.24219 11.7422 0.976562C11.1016 0.695312 10.4219 0.554688 9.70312 0.554688ZM5.85938 5.80469C5.85938 4.74219 6.23438 3.83594 6.98438 3.08594C7.73438 2.33594 8.64062 1.96094 9.70312 1.96094C10.7656 1.96094 11.6719 2.33594 12.4219 3.08594C13.1719 3.83594 13.5469 4.74219 13.5469 5.80469C13.5469 6.86719 13.1719 7.77344 12.4219 8.52344C11.6719 9.27344 10.7656 9.64844 9.70312 9.64844C8.64062 9.64844 7.73438 9.27344 6.98438 8.52344C6.23438 7.77344 5.85938 6.86719 5.85938 5.80469ZM10.3594 3.97656V3.34375H9.04688V5.14844H7.24219V6.46094H9.04688V8.26562H10.3594V6.46094H12.1641V5.14844H10.3594V3.97656ZM0 6.0625C0 5.59375 0.167969 5.19141 0.503906 4.85547C0.839844 4.51953 1.24219 4.35156 1.71094 4.35156H3C3.20312 4.35156 3.37109 4.42188 3.50391 4.5625C3.63672 4.70312 3.70312 4.86719 3.70312 5.05469C3.70312 5.25781 3.63672 5.42578 3.50391 5.55859C3.37109 5.69141 3.20312 5.75781 3 5.75781H1.71094C1.61719 5.75781 1.54297 5.78906 1.48828 5.85156C1.43359 5.91406 1.40625 5.98438 1.40625 6.0625V20.1016H18V6.0625C18 5.98438 17.9727 5.91406 17.918 5.85156C17.8633 5.78906 17.7891 5.75781 17.6953 5.75781H16.4062C16.2031 5.75781 16.0352 5.69141 15.9023 5.55859C15.7695 5.42578 15.7031 5.25781 15.7031 5.05469C15.7031 4.86719 15.7695 4.70312 15.9023 4.5625C16.0352 4.42188 16.2031 4.35156 16.4062 4.35156H17.6953C18.1641 4.35156 18.5664 4.51953 18.9023 4.85547C19.2383 5.19141 19.4062 5.59375 19.4062 6.0625V21.5078H0V6.0625ZM6 15.1562C6 14.6875 6.16797 14.2852 6.50391 13.9492C6.83984 13.6133 7.24219 13.4453 7.71094 13.4453H11.6953C12.1641 13.4453 12.5664 13.6133 12.9023 13.9492C13.2383 14.2852 13.4062 14.6875 13.4062 15.1562V21.1562H12V15.1562C12 15.0781 11.9727 15.0078 11.918 14.9453C11.8633 14.8828 11.7891 14.8516 11.6953 14.8516H7.71094C7.61719 14.8516 7.54297 14.8828 7.48828 14.9453C7.43359 15.0078 7.40625 15.0781 7.40625 15.1562V21.1562H6V15.1562Z" fill="#0070C0"/>
</svg>
