<svg width="20" height="20" viewBox="0 0 20 20" fill="none" xmlns="http://www.w3.org/2000/svg">
<path d="M17.5319 3.92874C15.7229 1.65024 13.0507 0.309995 10.2007 0.251495C7.31095 0.206495 4.55695 1.40799 2.65345 3.58524C0.7507 5.76174 -0.0818 8.66949 0.36895 11.5622C1.0147 15.7097 4.3702 19.033 8.52895 19.6412C9.02395 19.714 9.51745 19.75 10.0065 19.75C11.721 19.75 13.3807 19.3075 14.874 18.4435C14.9621 18.3957 15.0397 18.3307 15.1023 18.2524C15.1648 18.174 15.2111 18.084 15.2382 17.9875C15.2654 17.891 15.2729 17.79 15.2604 17.6905C15.2478 17.5911 15.2155 17.4951 15.1653 17.4084C15.115 17.3216 15.0479 17.2458 14.9679 17.1855C14.8878 17.1251 14.7965 17.0814 14.6993 17.057C14.6021 17.0325 14.5009 17.0278 14.4018 17.0431C14.3028 17.0584 14.2078 17.0934 14.1224 17.146C12.4987 18.085 10.6387 18.436 8.74645 18.1585C5.23195 17.6432 2.39695 14.8367 1.8517 11.3312C1.4692 8.87799 2.17345 6.41424 3.7837 4.57299C4.57643 3.6633 5.55947 2.93902 6.6632 2.45144C7.76693 1.96386 8.96436 1.72491 10.1707 1.75149C12.573 1.80024 14.8275 2.93424 16.3582 4.86099C17.1572 5.86315 17.7243 7.02977 18.0189 8.2771C18.3135 9.52443 18.3283 10.8215 18.0622 12.0752L18.015 12.2815C17.8057 13.1252 17.1097 13.3495 16.5307 13.2797C15.939 13.207 15.2482 12.7937 15.2482 11.8652V6.24924C15.2482 6.05033 15.1692 5.85957 15.0285 5.71891C14.8879 5.57826 14.6971 5.49924 14.4982 5.49924C14.2993 5.49924 14.1085 5.57826 13.9679 5.71891C13.8272 5.85957 13.7482 6.05033 13.7482 6.24924V6.33174C13.2605 5.83085 12.6774 5.43274 12.0334 5.16094C11.3893 4.88914 10.6973 4.74915 9.9982 4.74924C7.1032 4.74924 4.7482 7.10424 4.7482 9.99924C4.7482 12.8935 7.1032 15.2492 9.9982 15.2492C10.7869 15.2489 11.5654 15.0705 12.2756 14.7274C12.9858 14.3843 13.6094 13.8854 14.0999 13.2677C14.5799 14.1542 15.4822 14.6627 16.3499 14.7685C17.8327 14.9515 19.1167 14.0755 19.4722 12.643C19.8316 11.1385 19.8437 9.57188 19.5075 8.06201C19.1713 6.55214 18.4957 5.13865 17.5319 3.92874ZM9.9967 13.7492C7.92895 13.7492 6.2467 12.067 6.2467 9.99924C6.2467 7.93149 7.92895 6.24924 9.9967 6.24924C12.0645 6.24924 13.7467 7.93149 13.7467 9.99924C13.7467 12.067 12.0645 13.7492 9.9967 13.7492Z" fill="#757575"/>
</svg>
