<svg width="19" height="23" viewBox="0 0 19 23" fill="none" xmlns="http://www.w3.org/2000/svg">
<path d="M9.07227 0C4.1096 0 0.0722656 3.84904 0.0722656 8.58021C0.0722656 15.6293 8.17644 22.5122 8.52155 22.8018C8.67362 22.9297 8.86948 23.0002 9.07227 23C9.269 23 9.46565 22.9339 9.62306 22.8018C9.96802 22.5123 18.0723 15.6294 18.0723 8.58021C18.0723 3.84904 14.0349 0 9.07227 0ZM9.07227 21.1173C7.28052 19.4627 1.73895 13.913 1.73895 8.58021C1.73895 4.7249 5.02867 1.58831 9.07227 1.58831C13.1159 1.58831 16.4056 4.7249 16.4056 8.58021C16.4056 13.9129 10.864 19.4626 9.07227 21.1173Z" fill="black"/>
<path d="M9.0719 4.58398C6.77438 4.58398 4.90527 6.37705 4.90527 8.58101C4.90527 10.7851 6.77438 12.578 9.0719 12.578C11.3694 12.578 13.2385 10.7851 13.2385 8.58101C13.2385 6.37705 11.3694 4.58398 9.0719 4.58398ZM9.0719 10.9897C7.69337 10.9897 6.57187 9.9092 6.57187 8.58101C6.57187 7.2529 7.69337 6.1723 9.0719 6.1723C10.4504 6.1723 11.5719 7.25283 11.5719 8.58101C11.5719 9.9092 10.4504 10.9897 9.0719 10.9897Z" fill="black"/>
</svg>
