<svg width="121" height="30" viewBox="0 0 121 30" fill="none" xmlns="http://www.w3.org/2000/svg">
<path d="M31.9746 21.2002L27.9844 11.9189L27.6504 11.0312L27.7119 14.2129V22H26.2881V9.00098H28.2568L32.7832 19.3545L37.2656 9.00098H39.1816V22H37.7051V14.1777L37.7666 11.0664L37.4414 11.9541L33.46 21.2002H31.9746ZM47.54 14.1426C47.1123 13.627 46.5234 13.3691 45.7734 13.3691C45.0234 13.3691 44.4111 13.6357 43.9365 14.1689C43.4619 14.6963 43.1836 15.4199 43.1016 16.3398H48.1904C48.1904 15.3848 47.9736 14.6523 47.54 14.1426ZM46.0635 22.2021C44.6631 22.2021 43.5586 21.7568 42.75 20.8662C41.9473 19.9756 41.5459 18.7568 41.5459 17.21C41.5459 15.7158 41.9355 14.5059 42.7148 13.5801C43.4941 12.6484 44.5195 12.1738 45.791 12.1562C46.9863 12.1562 47.9326 12.5664 48.6299 13.3867C49.333 14.2012 49.6846 15.291 49.6846 16.6562C49.6846 16.7266 49.6816 16.8555 49.6758 17.043C49.6758 17.2305 49.6758 17.3652 49.6758 17.4473H43.0576C43.0752 18.543 43.3564 19.3984 43.9014 20.0137C44.4521 20.623 45.1904 20.9277 46.1162 20.9277C47.1357 20.9277 48.1582 20.6582 49.1836 20.1191L49.4121 21.3057C48.4336 21.9033 47.3174 22.2021 46.0635 22.2021ZM55.4854 20.9365C56.4521 20.9365 57.1699 20.626 57.6387 20.0049C58.1133 19.3838 58.3506 18.4961 58.3506 17.3418C58.3506 16.041 58.1221 15.0625 57.665 14.4062C57.2139 13.7441 56.4814 13.4131 55.4678 13.4131C55.0166 13.4131 54.6182 13.5098 54.2725 13.7031C53.9268 13.8965 53.6484 14.166 53.4375 14.5117C53.2266 14.8574 53.0654 15.2559 52.9541 15.707C52.8486 16.1523 52.7959 16.6416 52.7959 17.1748C52.7959 17.9248 52.8867 18.5752 53.0684 19.126C53.2559 19.6768 53.5547 20.1162 53.9648 20.4443C54.375 20.7725 54.8818 20.9365 55.4854 20.9365ZM58.377 20.6025C58.0605 21.0889 57.6387 21.4756 57.1113 21.7627C56.584 22.0498 55.9951 22.1934 55.3447 22.1934C54.0732 22.1934 53.0771 21.7422 52.3564 20.8398C51.6357 19.9316 51.2754 18.6982 51.2754 17.1396C51.2754 15.6514 51.6416 14.4502 52.374 13.5361C53.1064 12.6162 54.0879 12.1562 55.3184 12.1562C55.957 12.1562 56.5576 12.2969 57.1201 12.5781C57.6885 12.8535 58.1133 13.2256 58.3945 13.6943L58.3682 12.8594V8.61426L59.8184 8.52637V22H58.5703L58.377 20.6025ZM62.4023 19.8555C63.7559 20.5234 65.2061 20.8574 66.7529 20.8574C68.6572 20.8574 69.6094 19.9902 69.6094 18.2559C69.6094 17.6934 69.457 17.2393 69.1523 16.8936C68.8535 16.542 68.3057 16.2666 67.5088 16.0674L64.9248 15.417C62.9502 14.9189 61.9629 13.8643 61.9629 12.2529C61.9629 11.0166 62.3877 10.0996 63.2373 9.50195C64.0869 8.89844 65.2617 8.59668 66.7617 8.59668C67.5469 8.59668 68.2822 8.68164 68.9678 8.85156C69.6533 9.02148 70.2275 9.25 70.6904 9.53711L70.251 10.7764C69.8584 10.5596 69.3369 10.3662 68.6865 10.1963C68.042 10.0264 67.3887 9.94141 66.7266 9.94141C64.6055 9.94141 63.5449 10.6768 63.5449 12.1475C63.5449 12.6455 63.7061 13.0469 64.0283 13.3516C64.3564 13.6504 64.8457 13.8789 65.4961 14.0371L67.9658 14.6348C69.0205 14.8867 69.8203 15.291 70.3652 15.8477C70.9102 16.3984 71.1826 17.1836 71.1826 18.2031C71.1826 19.5273 70.7754 20.5264 69.9609 21.2002C69.1523 21.8682 68.0508 22.2021 66.6562 22.2021C65.6133 22.2021 64.6846 22.0967 63.8701 21.8857C63.0615 21.6689 62.4199 21.4141 61.9453 21.1211L62.4023 19.8555ZM78.7236 14.1426C78.2959 13.627 77.707 13.3691 76.957 13.3691C76.207 13.3691 75.5947 13.6357 75.1201 14.1689C74.6455 14.6963 74.3672 15.4199 74.2852 16.3398H79.374C79.374 15.3848 79.1572 14.6523 78.7236 14.1426ZM77.2471 22.2021C75.8467 22.2021 74.7422 21.7568 73.9336 20.8662C73.1309 19.9756 72.7295 18.7568 72.7295 17.21C72.7295 15.7158 73.1191 14.5059 73.8984 13.5801C74.6777 12.6484 75.7031 12.1738 76.9746 12.1562C78.1699 12.1562 79.1162 12.5664 79.8135 13.3867C80.5166 14.2012 80.8682 15.291 80.8682 16.6562C80.8682 16.7266 80.8652 16.8555 80.8594 17.043C80.8594 17.2305 80.8594 17.3652 80.8594 17.4473H74.2412C74.2588 18.543 74.54 19.3984 75.085 20.0137C75.6357 20.623 76.374 20.9277 77.2998 20.9277C78.3193 20.9277 79.3418 20.6582 80.3672 20.1191L80.5957 21.3057C79.6172 21.9033 78.501 22.2021 77.2471 22.2021ZM87.2314 12.2705C87.4951 12.2705 87.7354 12.2881 87.9521 12.3232L87.8994 13.6768C87.6299 13.6299 87.3955 13.6064 87.1963 13.6064C86.376 13.6064 85.708 13.8936 85.1924 14.4678C84.6826 15.0361 84.4277 15.7422 84.4277 16.5859V22H82.96C82.9541 16.082 82.9512 12.8682 82.9512 12.3584H84.1729L84.3135 14.0898C84.6475 13.5449 85.0723 13.1055 85.5879 12.7715C86.1035 12.4375 86.6514 12.2705 87.2314 12.2705ZM91.9336 22L88.1982 12.3584H89.7715L91.8984 18.0889C91.8984 18.0889 92.1914 18.9033 92.7773 20.5322C92.9766 19.9053 93.252 19.0967 93.6035 18.1064C94.0488 16.8584 94.7402 14.9424 95.6777 12.3584H97.2422L93.5332 22H91.9336ZM100.266 12.3584V22H98.7891V12.3584H100.266ZM100.266 8.85156V10.5918H98.7891V8.85156H100.266ZM107.112 22.2021C105.694 22.2021 104.584 21.7422 103.781 20.8223C102.984 19.9023 102.586 18.6982 102.586 17.21C102.592 15.71 102.999 14.4941 103.808 13.5625C104.622 12.625 105.735 12.1562 107.147 12.1562C107.646 12.1562 108.126 12.2178 108.589 12.3408C109.058 12.4639 109.427 12.625 109.696 12.8242L109.292 13.9668C108.606 13.5977 107.883 13.4131 107.121 13.4131C106.189 13.4131 105.451 13.7529 104.906 14.4326C104.367 15.1123 104.098 16.041 104.098 17.2188C104.098 18.3672 104.364 19.2783 104.897 19.9521C105.437 20.6201 106.181 20.9541 107.13 20.9541C107.886 20.9541 108.659 20.749 109.45 20.3389L109.635 21.5078C108.996 21.9707 108.155 22.2021 107.112 22.2021ZM117.097 14.1426C116.669 13.627 116.08 13.3691 115.33 13.3691C114.58 13.3691 113.968 13.6357 113.493 14.1689C113.019 14.6963 112.74 15.4199 112.658 16.3398H117.747C117.747 15.3848 117.53 14.6523 117.097 14.1426ZM115.62 22.2021C114.22 22.2021 113.115 21.7568 112.307 20.8662C111.504 19.9756 111.103 18.7568 111.103 17.21C111.103 15.7158 111.492 14.5059 112.271 13.5801C113.051 12.6484 114.076 12.1738 115.348 12.1562C116.543 12.1562 117.489 12.5664 118.187 13.3867C118.89 14.2012 119.241 15.291 119.241 16.6562C119.241 16.7266 119.238 16.8555 119.232 17.043C119.232 17.2305 119.232 17.3652 119.232 17.4473H112.614C112.632 18.543 112.913 19.3984 113.458 20.0137C114.009 20.623 114.747 20.9277 115.673 20.9277C116.692 20.9277 117.715 20.6582 118.74 20.1191L118.969 21.3057C117.99 21.9033 116.874 22.2021 115.62 22.2021Z" fill="black"/>
<path d="M1.85156 24V6.83203H5.60156L10.793 19.2305L16.0195 6.83203H19.7227V24H16.793V15.5156L16.8867 10.6523L16.4531 11.9414L12.0586 22.8281H9.33984L5.03906 11.8828L4.60547 10.5938L4.71094 15.5625V24H1.85156Z" fill="#0070C0"/>
</svg>
