<svg width="33" height="34" viewBox="0 0 33 34" fill="none" xmlns="http://www.w3.org/2000/svg">
<g clip-path="url(#clip0_1_65)">
<path d="M28.6295 4.44458C28.5657 4.44201 28.5019 4.44157 28.4382 4.44336H26.0337V2.38711C26.0338 1.56461 25.2447 1.07858 24.4183 1.07858H22.2016C21.3751 1.07858 20.7739 1.56461 20.7739 2.38711V4.44329H11.7572V2.38711C11.7572 1.56461 11.1561 1.07858 10.3295 1.07858H8.11291C7.28643 1.07858 6.49742 1.56461 6.49742 2.38711V4.44329H4.09301C2.55813 4.40072 1.2792 5.60441 1.23642 7.13169C1.23461 7.19509 1.23505 7.25864 1.23764 7.32204V28.9311C1.23764 30.5761 2.43984 32.1089 4.09293 32.1089H28.4382C30.0914 32.1089 31.2936 30.5761 31.2936 28.9311V7.32204C31.3564 5.7954 30.1636 4.50712 28.6295 4.44458ZM22.2016 2.57402H24.5309V6.68646H22.2016V2.57402ZM8.11297 2.57402H10.2545V6.68646H8.11297V2.57402ZM29.7908 28.9311C29.7908 29.7536 29.2648 30.6134 28.4382 30.6134H4.09301C3.26646 30.6134 2.7405 29.7536 2.7405 28.9311V13.0421H29.7908V28.9311ZM29.7908 7.32204V11.5467H2.74044V7.32204C2.67679 6.62291 3.19477 6.00478 3.89733 5.94145C3.96234 5.93558 4.02779 5.93473 4.09293 5.9388H6.49742V6.76131C6.49742 7.58381 7.28636 8.18196 8.11291 8.18196H10.3295C11.0969 8.20294 11.7362 7.60076 11.7572 6.83709C11.7579 6.81183 11.7579 6.78657 11.7572 6.76131V5.93873H20.7739V6.76123C20.7529 7.52492 21.3581 8.16093 22.1255 8.18189C22.1509 8.18261 22.1762 8.18261 22.2016 8.18189H24.4183C25.2448 8.18189 26.0338 7.58374 26.0338 6.76123V5.93873H28.4382C29.1423 5.89458 29.7491 6.42676 29.7934 7.1274C29.7976 7.19223 29.7967 7.25735 29.7908 7.32204Z" fill="#117DC1" stroke="#117DC1" stroke-width="0.581818"/>
<path d="M12.3411 23.2376L11.6415 26.964C11.6139 27.1238 11.6412 27.288 11.7196 27.4316C11.9186 27.7963 12.3882 27.9373 12.7685 27.7466L16.266 25.9951L19.7635 27.7466L20.1133 27.8211C20.2819 27.824 20.4466 27.7713 20.5796 27.672C20.8119 27.5093 20.9314 27.237 20.8905 26.9639L20.1911 23.2375L23.0279 20.629C23.231 20.4187 23.3046 20.1219 23.2222 19.8465C23.1176 19.5918 22.8818 19.4082 22.6005 19.362L18.7143 18.8031L16.9656 15.4119C16.8893 15.2611 16.7622 15.1392 16.6048 15.0661C16.2185 14.8867 15.7537 15.0416 15.5666 15.4119L13.8178 18.8031L9.93163 19.362C9.65031 19.4082 9.41451 19.5918 9.30986 19.8465C9.22752 20.1219 9.30123 20.4187 9.50415 20.629L12.3411 23.2376ZM14.4785 20.2192C14.7226 20.1841 14.9293 20.0284 15.0225 19.8092L16.266 17.4243L17.5096 19.8092C17.6028 20.0284 17.8096 20.1841 18.0537 20.2192L20.8128 20.5918L18.8309 22.4177C18.6462 22.593 18.5596 22.842 18.5977 23.0884L19.064 25.7343L16.6157 24.4673L16.2659 24.3928L15.9163 24.4673L13.468 25.7343L13.9343 23.0884C13.9724 22.842 13.8857 22.593 13.7011 22.4177L11.7191 20.5918L14.4785 20.2192Z" fill="#117DC1" stroke="#117DC1" stroke-width="0.484848"/>
</g>
<defs>
<clipPath id="clip0_1_65">
<rect width="32" height="32.9697" fill="white" transform="translate(0.265625 0.108887)"/>
</clipPath>
</defs>
</svg>
