<svg width="33" height="33" viewBox="0 0 33 33" fill="none" xmlns="http://www.w3.org/2000/svg">
<g clip-path="url(#clip0_1_46)">
<path d="M28.3062 12.7928C28.3292 12.5903 28.3438 12.3853 28.3438 12.1768V6.01075C28.3438 3.0235 25.9141 0.59375 22.9268 0.59375H5.76075C2.7735 0.59375 0.34375 3.0235 0.34375 6.01075V12.1768C0.34375 14.6611 2.00975 16.7607 4.34375 17.3848V19.5938C4.34375 19.9785 4.5645 20.3281 4.91013 20.4951C5.04888 20.5614 5.19625 20.5938 5.34375 20.5938C5.56638 20.5938 5.78813 20.5196 5.96875 20.375L9.44438 17.5938H12.3673C12.3567 17.7325 12.3439 17.8713 12.3439 18.0107V24.1768C12.3439 26.6611 14.0098 28.7607 16.3438 29.3848V31.5938C16.3438 31.9785 16.5646 32.3281 16.9102 32.4951C17.0488 32.5614 17.1963 32.5938 17.3438 32.5938C17.5664 32.5938 17.7882 32.5196 17.9688 32.375L21.4443 29.5938H26.9268C29.9141 29.5938 32.3438 27.1641 32.3438 24.1768V18.0107C32.3438 15.5289 30.6663 13.4143 28.3062 12.7928ZM9.09375 15.5938C8.86625 15.5938 8.6465 15.6708 8.46875 15.8125L6.34375 17.5128V16.5518C6.34375 16.0361 5.95213 15.6055 5.4385 15.5567C3.67475 15.3878 2.34375 13.9347 2.34375 12.1768V6.01075C2.34375 4.127 3.877 2.59375 5.76075 2.59375H22.9268C24.8106 2.59375 26.3438 4.127 26.3438 6.01075V12.1768C26.3438 14.0606 24.8106 15.5938 22.9268 15.5938H9.09375ZM30.3438 24.1768C30.3438 26.0606 28.8106 27.5938 26.9268 27.5938H21.0938C20.8662 27.5938 20.6465 27.6708 20.4688 27.8125L18.3438 29.5128V28.5518C18.3438 28.0361 17.9522 27.6056 17.4386 27.5567C15.6748 27.3878 14.3438 25.9347 14.3438 24.1768V18.0107C14.3438 17.8699 14.3742 17.7328 14.3911 17.5938H22.9268C25.0037 17.5938 26.8088 16.4178 27.7176 14.698C29.2481 15.061 30.3438 16.4163 30.3438 18.0107V24.1768Z" fill="#117DC1"/>
<path d="M24.3438 6.59375C24.3438 6.041 23.8965 5.59375 23.3438 5.59375H18.3438C17.791 5.59375 17.3438 6.041 17.3438 6.59375C17.3438 7.1465 17.791 7.59375 18.3438 7.59375H23.3438C23.8965 7.59375 24.3438 7.1465 24.3438 6.59375Z" fill="#117DC1"/>
<path d="M15.3438 9.59375H13.3438C12.791 9.59375 12.3438 10.041 12.3438 10.5938C12.3438 11.1465 12.791 11.5938 13.3438 11.5938H15.3438C15.8965 11.5938 16.3438 11.1465 16.3438 10.5938C16.3438 10.041 15.8965 9.59375 15.3438 9.59375Z" fill="#117DC1"/>
<path d="M10.3438 9.59375H5.34375C4.791 9.59375 4.34375 10.041 4.34375 10.5938C4.34375 11.1465 4.791 11.5938 5.34375 11.5938H10.3438C10.8966 11.5938 11.3438 11.1465 11.3438 10.5938C11.3438 10.041 10.8966 9.59375 10.3438 9.59375Z" fill="#117DC1"/>
<path d="M15.3438 5.59375H5.34375C4.791 5.59375 4.34375 6.041 4.34375 6.59375C4.34375 7.1465 4.791 7.59375 5.34375 7.59375H15.3438C15.8965 7.59375 16.3438 7.1465 16.3438 6.59375C16.3438 6.041 15.8965 5.59375 15.3438 5.59375Z" fill="#117DC1"/>
<path d="M22.3438 21.5938C22.896 21.5938 23.3438 21.146 23.3438 20.5938C23.3438 20.0415 22.896 19.5938 22.3438 19.5938C21.7915 19.5938 21.3438 20.0415 21.3438 20.5938C21.3438 21.146 21.7915 21.5938 22.3438 21.5938Z" fill="#117DC1"/>
<path d="M26.3448 21.5938C26.8971 21.5938 27.3448 21.146 27.3448 20.5938C27.3448 20.0415 26.8971 19.5938 26.3448 19.5938C25.7925 19.5938 25.3448 20.0415 25.3448 20.5938C25.3448 21.146 25.7925 21.5938 26.3448 21.5938Z" fill="#117DC1"/>
<path d="M18.3438 21.5938C18.896 21.5938 19.3438 21.146 19.3438 20.5938C19.3438 20.0415 18.896 19.5938 18.3438 19.5938C17.7915 19.5938 17.3438 20.0415 17.3438 20.5938C17.3438 21.146 17.7915 21.5938 18.3438 21.5938Z" fill="#117DC1"/>
</g>
<defs>
<clipPath id="clip0_1_46">
<rect width="32" height="32" fill="white" transform="translate(0.34375 0.59375)"/>
</clipPath>
</defs>
</svg>
